HIERARCHY
ROOT Hips
{
  OFFSET -206.729 90.3271 1184.84
  CHANNELS 6 Xposition Yposition Zposition Zrotation Xrotation Yrotation
  JOINT Spine
  {
    OFFSET 1.8641e-05 8.00001 0
    CHANNELS 6 Xposition Yposition Zposition Zrotation Xrotation Yrotation
    JOINT Spine1
    {
      OFFSET 0.00171074 7.99998 -0.00171153
      CHANNELS 6 Xposition Yposition Zposition Zrotation Xrotation Yrotation
      JOINT Spine2
      {
        OFFSET -0.000923298 8.00002 0.00121404
        CHANNELS 6 Xposition Yposition Zposition Zrotation Xrotation Yrotation
        JOINT Spine3
        {
          OFFSET 0 8 0
          CHANNELS 6 Xposition Yposition Zposition Zrotation Xrotation Yrotation
          JOINT Neck
          {
            OFFSET -0.000203862 17.0003 -0.000188781
            CHANNELS 6 Xposition Yposition Zposition Zrotation Xrotation Yrotation
            JOINT Head
            {
              OFFSET -0.00086243 10.7999 0.000485631
              CHANNELS 6 Xposition Yposition Zposition Zrotation Xrotation Yrotation
              End Site
              {
                OFFSET 0 20.25 0
              }
            }
          }
          JOINT LeftShoulder
          {
            OFFSET 4.99982 17 -4.87162e-05
            CHANNELS 6 Xposition Yposition Zposition Zrotation Xrotation Yrotation
            JOINT LeftShoulder2
            {
              OFFSET 6.45 0 0
              CHANNELS 6 Xposition Yposition Zposition Zrotation Xrotation Yrotation
              JOINT LeftArm
              {
                OFFSET 6.44998 -0.000864666 -0.00010984
                CHANNELS 6 Xposition Yposition Zposition Zrotation Xrotation Yrotation
                JOINT LeftForeArm
                {
                  OFFSET 0.00204199 -32.3984 -2.00176
                  CHANNELS 6 Xposition Yposition Zposition Zrotation Xrotation Yrotation
                  JOINT LeftHand
                  {
                    OFFSET -0.000437176 -25.6492 2.00071
                    CHANNELS 6 Xposition Yposition Zposition Zrotation Xrotation Yrotation
                    JOINT LeftHandThumb1
                    {
                      OFFSET -0.501409 -1.50126 2.64805
                      CHANNELS 6 Xposition Yposition Zposition Zrotation Xrotation Yrotation
                      JOINT LeftHandThumb2
                      {
                        OFFSET 0.00040061 -3.79995 3.6984
                        CHANNELS 6 Xposition Yposition Zposition Zrotation Xrotation Yrotation
                        JOINT LeftHandThumb3
                        {
                          OFFSET -0.0016904 -2.99956 2.69808
                          CHANNELS 6 Xposition Yposition Zposition Zrotation Xrotation Yrotation
                          End Site
                          {
                            OFFSET 0.000466516 -2.29954 1.79949
                          }
                        }
                      }
                    }
                    JOINT LeftHandIndex
                    {
                      OFFSET -0.00521029 -1.90093 1.59876
                      CHANNELS 6 Xposition Yposition Zposition Zrotation Xrotation Yrotation
                      JOINT LeftHandIndex1
                      {
                        OFFSET -4.75568e-05 -8.30042 1.90045
                        CHANNELS 6 Xposition Yposition Zposition Zrotation Xrotation Yrotation
                        JOINT LeftHandIndex2
                        {
                          OFFSET 0.000708462 -4.50181 0.00425881
                          CHANNELS 6 Xposition Yposition Zposition Zrotation Xrotation Yrotation
                          JOINT LeftHandIndex3
                          {
                            OFFSET 0.00195331 -3.40003 0.00245448
                            CHANNELS 6 Xposition Yposition Zposition Zrotation Xrotation Yrotation
                            End Site
                            {
                              OFFSET -0.00198569 -2.6013 -0.00341346
                            }
                          }
                        }
                      }
                    }
                    JOINT LeftHandMiddle
                    {
                      OFFSET -0.249742 -2.20007 0.399904
                      CHANNELS 6 Xposition Yposition Zposition Zrotation Xrotation Yrotation
                      JOINT LeftHandMiddle1
                      {
                        OFFSET 0.000319611 -8.30083 0.998482
                        CHANNELS 6 Xposition Yposition Zposition Zrotation Xrotation Yrotation
                        JOINT LeftHandMiddle2
                        {
                          OFFSET 0.000402034 -4.6505 -0.000394291
                          CHANNELS 6 Xposition Yposition Zposition Zrotation Xrotation Yrotation
                          JOINT LeftHandMiddle3
                          {
                            OFFSET 0.000302843 -3.29632 -0.00258271
                            CHANNELS 6 Xposition Yposition Zposition Zrotation Xrotation Yrotation
                            End Site
                            {
                              OFFSET -0.000197716 -2.70296 -0.00133478
                            }
                          }
                        }
                      }
                    }
                    JOINT LeftHandRing
                    {
                      OFFSET -0.497508 -2.14806 -0.797067
                      CHANNELS 6 Xposition Yposition Zposition Zrotation Xrotation Yrotation
                      JOINT LeftHandRing1
                      {
                        OFFSET 0.00102614 -7.74953 -0.199208
                        CHANNELS 6 Xposition Yposition Zposition Zrotation Xrotation Yrotation
                        JOINT LeftHandRing2
                        {
                          OFFSET 0.0017676 -3.79987 -0.000109005
                          CHANNELS 6 Xposition Yposition Zposition Zrotation Xrotation Yrotation
                          JOINT LeftHandRing3
                          {
                            OFFSET -0.0013457 -3.39946 -0.00163432
                            CHANNELS 6 Xposition Yposition Zposition Zrotation Xrotation Yrotation
                            End Site
                            {
                              OFFSET -0.00023482 -2.60062 0.0036126
                            }
                          }
                        }
                      }
                    }
                    JOINT LeftHandPinky
                    {
                      OFFSET -0.752803 -1.75379 -1.85001
                      CHANNELS 6 Xposition Yposition Zposition Zrotation Xrotation Yrotation
                      JOINT LeftHandPinky1
                      {
                        OFFSET 0.00563844 -7.14789 -0.997871
                        CHANNELS 6 Xposition Yposition Zposition Zrotation Xrotation Yrotation
                        JOINT LeftHandPinky2
                        {
                          OFFSET -0.00315399 -3.00383 -0.00290738
                          CHANNELS 6 Xposition Yposition Zposition Zrotation Xrotation Yrotation
                          JOINT LeftHandPinky3
                          {
                            OFFSET 0.00378631 -2.35326 0.000737585
                            CHANNELS 6 Xposition Yposition Zposition Zrotation Xrotation Yrotation
                            End Site
                            {
                              OFFSET -0.00101117 -2.10238 0.000293416
                            }
                          }
                        }
                      }
                    }
                  }
                }
              }
            }
          }
          JOINT RightShoulder
          {
            OFFSET -5.00015 17 -3.49781e-05
            CHANNELS 6 Xposition Yposition Zposition Zrotation Xrotation Yrotation
            JOINT RightShoulder2
            {
              OFFSET -6.45 0 0
              CHANNELS 6 Xposition Yposition Zposition Zrotation Xrotation Yrotation
              JOINT RightArm
              {
                OFFSET -6.45001 -0.00024751 1.31711e-05
                CHANNELS 6 Xposition Yposition Zposition Zrotation Xrotation Yrotation
                JOINT RightForeArm
                {
                  OFFSET -0.00168098 -32.3948 -1.99367
                  CHANNELS 6 Xposition Yposition Zposition Zrotation Xrotation Yrotation
                  JOINT RightHand
                  {
                    OFFSET 0.00176311 -25.6437 2.00296
                    CHANNELS 6 Xposition Yposition Zposition Zrotation Xrotation Yrotation
                    JOINT RightHandThumb1
                    {
                      OFFSET 0.499897 -1.49869 2.65064
                      CHANNELS 6 Xposition Yposition Zposition Zrotation Xrotation Yrotation
                      JOINT RightHandThumb2
                      {
                        OFFSET 0 -3.8 3.69999
                        CHANNELS 6 Xposition Yposition Zposition Zrotation Xrotation Yrotation
                        JOINT RightHandThumb3
                        {
                          OFFSET -9.75596e-05 -2.99989 2.7
                          CHANNELS 6 Xposition Yposition Zposition Zrotation Xrotation Yrotation
                          End Site
                          {
                            OFFSET 0.000188801 -2.29997 1.80004
                          }
                        }
                      }
                    }
                    JOINT RightHandIndex
                    {
                      OFFSET 0.000830888 -1.90197 1.60598
                      CHANNELS 6 Xposition Yposition Zposition Zrotation Xrotation Yrotation
                      JOINT RightHandIndex1
                      {
                        OFFSET -0.00139284 -8.29978 1.89946
                        CHANNELS 6 Xposition Yposition Zposition Zrotation Xrotation Yrotation
                        JOINT RightHandIndex2
                        {
                          OFFSET 0.000182115 -4.50059 -0.000462907
                          CHANNELS 6 Xposition Yposition Zposition Zrotation Xrotation Yrotation
                          JOINT RightHandIndex3
                          {
                            OFFSET -0.00270714 -3.39765 0.0049212
                            CHANNELS 6 Xposition Yposition Zposition Zrotation Xrotation Yrotation
                            End Site
                            {
                              OFFSET 0.000291289 -2.60101 -0.00195194
                            }
                          }
                        }
                      }
                    }
                    JOINT RightHandMiddle
                    {
                      OFFSET 0.248585 -2.20088 0.399362
                      CHANNELS 6 Xposition Yposition Zposition Zrotation Xrotation Yrotation
                      JOINT RightHandMiddle1
                      {
                        OFFSET 0.00174667 -8.30111 1.00015
                        CHANNELS 6 Xposition Yposition Zposition Zrotation Xrotation Yrotation
                        JOINT RightHandMiddle2
                        {
                          OFFSET 0.000349942 -4.65008 0.000221713
                          CHANNELS 6 Xposition Yposition Zposition Zrotation Xrotation Yrotation
                          JOINT RightHandMiddle3
                          {
                            OFFSET 0.000556525 -3.29994 7.03802e-05
                            CHANNELS 6 Xposition Yposition Zposition Zrotation Xrotation Yrotation
                            End Site
                            {
                              OFFSET -0.000379286 -2.70037 -0.00127304
                            }
                          }
                        }
                      }
                    }
                    JOINT RightHandRing
                    {
                      OFFSET 0.500271 -2.15075 -0.800837
                      CHANNELS 6 Xposition Yposition Zposition Zrotation Xrotation Yrotation
                      JOINT RightHandRing1
                      {
                        OFFSET 0.00163264 -7.75089 -0.199326
                        CHANNELS 6 Xposition Yposition Zposition Zrotation Xrotation Yrotation
                        JOINT RightHandRing2
                        {
                          OFFSET -0.000812539 -3.80049 -0.000349077
                          CHANNELS 6 Xposition Yposition Zposition Zrotation Xrotation Yrotation
                          JOINT RightHandRing3
                          {
                            OFFSET 0.000827892 -3.39951 -0.000181745
                            CHANNELS 6 Xposition Yposition Zposition Zrotation Xrotation Yrotation
                            End Site
                            {
                              OFFSET 0.000216635 -2.60013 -1.83649e-05
                            }
                          }
                        }
                      }
                    }
                    JOINT RightHandPinky
                    {
                      OFFSET 0.750917 -1.74947 -1.84971
                      CHANNELS 6 Xposition Yposition Zposition Zrotation Xrotation Yrotation
                      JOINT RightHandPinky1
                      {
                        OFFSET 0.000286472 -7.14939 -0.999867
                        CHANNELS 6 Xposition Yposition Zposition Zrotation Xrotation Yrotation
                        JOINT RightHandPinky2
                        {
                          OFFSET 0.00155362 -3.00038 0.000946823
                          CHANNELS 6 Xposition Yposition Zposition Zrotation Xrotation Yrotation
                          JOINT RightHandPinky3
                          {
                            OFFSET -0.00012357 -2.34958 0.00102581
                            CHANNELS 6 Xposition Yposition Zposition Zrotation Xrotation Yrotation
                            End Site
                            {
                              OFFSET 0.000653952 -2.10027 -0.00115384
                            }
                          }
                        }
                      }
                    }
                  }
                }
              }
            }
          }
        }
      }
    }
  }
  JOINT LeftUpLeg
  {
    OFFSET 8.00004 0 8.10887e-05
    CHANNELS 6 Xposition Yposition Zposition Zrotation Xrotation Yrotation
    JOINT LeftLeg
    {
      OFFSET -0.000601798 -45.0007 -0.998458
      CHANNELS 6 Xposition Yposition Zposition Zrotation Xrotation Yrotation
      JOINT LeftFoot
      {
        OFFSET -0.000979515 -40.9999 -1.99915
        CHANNELS 6 Xposition Yposition Zposition Zrotation Xrotation Yrotation
        JOINT LeftToeBase
        {
          OFFSET -0.000269272 -7.5 12.5003
          CHANNELS 6 Xposition Yposition Zposition Zrotation Xrotation Yrotation
          JOINT LeftFootToe
          {
            OFFSET 0 0 4
            CHANNELS 6 Xposition Yposition Zposition Zrotation Xrotation Yrotation
            End Site
            {
              OFFSET 0 0 0
            }
          }
        }
      }
    }
  }
  JOINT RightUpLeg
  {
    OFFSET -8.00004 0 -8.10887e-05
    CHANNELS 6 Xposition Yposition Zposition Zrotation Xrotation Yrotation
    JOINT RightLeg
    {
      OFFSET -0.000461969 -45.0002 -0.999516
      CHANNELS 6 Xposition Yposition Zposition Zrotation Xrotation Yrotation
      JOINT RightFoot
      {
        OFFSET 6.4707e-05 -41 -1.99991
        CHANNELS 6 Xposition Yposition Zposition Zrotation Xrotation Yrotation
        JOINT RightToeBase
        {
          OFFSET 0.00128112 -7.5 12.4991
          CHANNELS 6 Xposition Yposition Zposition Zrotation Xrotation Yrotation
          JOINT RightFootToe
          {
            OFFSET 0 0 4
            CHANNELS 6 Xposition Yposition Zposition Zrotation Xrotation Yrotation
            End Site
            {
              OFFSET 0 0 0
            }
          }
        }
      }
    }
  }
}
MOTION
Frames:	3
Frame Time:	0.0111111
-206.731 90.3426 1184.83 3.38873 -3.37643 148.745 -5.68434e-14 8 0 17.8721 17.1326 1.61112 1.13687e-13 8 2.27374e-13 2.91191 5.89225 0.17041 0 8 0 1.45741 2.94746 0.122756 5.68434e-14 8 0 1.45525 2.94355 0.123677 -2.27374e-13 17 0 -0.957685 0.896236 -0.268284 5.68434e-14 10.8 0 -2.23951 2.08654 -0.602326 5 17 2.27374e-13 -9.28193 0.192833 0.216848 6.45 -5.68434e-14 0 -0.193628 1.25157 2.66509 6.45 5.68434e-14 0 22.8146 -1.55268 18.9058 2.84217e-14 -32.4 -2 0.435699 -49.9825 -25.3216 1.13687e-13 -25.65 2 -12.6617 -39.6332 -32.5182 -0.5 -1.5 2.65 -8.6497 30.1462 76.5212 1.13687e-13 -3.8 3.7 -0.325662 34.9428 -0.0349524 -1.13687e-13 -3 2.7 0.0649378 3.04809 0.2152 -1.13687e-13 -1.9 1.6 4.62728e-06 -6.88466e-06 -7.70511e-06 0 -8.3 1.9 -3.30432 15.0067 0.550376 0 -4.5 2.84217e-14 -30.7337 -0.0340203 0.155782 0 -3.4 -8.52651e-14 -22.4917 -0.0574822 0.0784773 -0.25 -2.2 0.4 4.62728e-06 -6.88466e-06 -7.70511e-06 0 -8.3 1 -3.03156 14.0567 0.555438 -2.27374e-13 -4.65 -2.84217e-14 -30.8552 -0.0774372 0.249494 -2.27374e-13 -3.3 0 -89.9556 -0.00131316 0.000795955 -0.5 -2.15 -0.8 4.62728e-06 -6.88466e-06 -7.70511e-06 -2.27374e-13 -7.75 -0.2 -2.79662 13.6262 0.656362 -1.13687e-13 -3.8 0 -46.5593 -0.124972 0.177068 0 -3.4 8.52651e-14 -89.9959 0.0342374 -3.55662 -0.75 -1.75 -1.85 4.62728e-06 -6.88466e-06 -7.70511e-06 0 -7.15 -1 -2.81929 13.987 0.760643 0 -3 2.84217e-14 -0.0662142 0.116909 -0.000931533 2.27374e-13 -2.35 -5.68434e-14 0.00872477 -0.00180961 -0.000935088 -5 17 0 -0.851309 2.66014 4.41736 -6.45 -1.13687e-13 0 -0.715632 -0.745797 -2.29339 -6.45 0 2.27374e-13 -32.3647 -28.0206 -21.7756 -1.13687e-13 -32.4 -2 -1.1631 -34.3344 15.1174 0 -25.65 2 -0.874558 -25.1742 37.6203 0.5 -1.5 2.65 5.36196 15.9249 -102.634 2.27374e-13 -3.8 3.7 0.0787567 45.9048 0.00717597 -1.13687e-13 -3 2.7 0.00577339 54.1762 -0.0150609 0 -1.9 1.6 -1.73628e-06 -2.66185e-06 -2.79794e-06 -2.84217e-14 -8.3 1.9 17.5854 20.6533 -3.5904 1.7053e-13 -4.5 -2.27374e-13 4.79041 21.0437 11.519 1.13687e-13 -3.4 -2.27374e-13 43.5702 0.0421804 -0.050619 0.25 -2.2 0.4 -1.73628e-06 -2.66185e-06 -2.79794e-06 0 -8.3 1 29.5082 11.3626 -4.05111 0 -4.65 -2.27374e-13 1.13382 14.3379 10.5191 0 -3.3 0 56.0301 0.0288163 0.103416 0.5 -2.15 -0.8 -1.73628e-06 -2.66185e-06 -2.79794e-06 0 -7.75 -0.2 48.7259 4.53877 -4.84276 1.13687e-13 -3.8 0 1.54976 21.3885 17.5975 0 -3.4 0 66.2496 0.150835 0.068936 0.75 -1.75 -1.85 -1.73628e-06 -2.66185e-06 -2.79794e-06 0 -7.15 -1 61.8891 -3.46664 -2.86151 0 -3 1.13687e-13 4.14571 17.3907 8.5795 0 -2.35 0 38.7334 0.0503694 0.139315 8 -2.84217e-14 0 3.46577 -21.7407 0.835887 5.68434e-14 -45 -1 8.03091 5.56471 -1.24277 5.68434e-14 -41 -2 -5.61972 11.5038 23.9907 2.84217e-14 -7.5 12.5 3.43943e-07 -4.07422e-07 -1.59165e-08 -1.13687e-13 0 4 -3.8293 -12.7958 9.84965 -8 -1.42109e-14 0 -4.94073 11.0607 -26.4741 0 -45 -1 22.1265 -8.4529 0.386068 -2.27374e-13 -41 -2 -7.97224 1.97738 22.9519 -1.13687e-13 -7.5 12.5 -3.65051e-06 -0.0379941 -0.00871375 0 0 4 2.45582 10.0227 11.4321 
-206.729 90.4438 1184.76 3.46686 -3.41165 148.55 0 8 2.27374e-13 17.6907 17.1342 1.5339 0 8 0 2.88471 5.87331 0.201211 -5.68434e-14 8 -2.27374e-13 1.44421 2.93778 0.137657 1.13687e-13 8 0 1.44171 2.93331 0.137536 -1.13687e-13 17 0 -1.02028 0.972788 -0.226242 1.13687e-13 10.8 -2.27374e-13 -2.38645 2.26453 -0.500673 5 17 0 -9.46629 0.161963 0.481262 6.45 -1.13687e-13 0 -0.200679 1.23413 2.67208 6.45 5.68434e-14 0 22.7829 -0.70421 19.5827 5.68434e-14 -32.4 -2 -0.345013 -51.4009 -26.1333 1.13687e-13 -25.65 2 -12.8745 -39.691 -31.6187 -0.5 -1.5 2.65 -7.56519 32.4454 72.0223 8.52651e-14 -3.8 3.7 -0.341252 34.4905 -0.0524569 -1.13687e-13 -3 2.7 0.068151 4.04984 0.232397 0 -1.9 1.6 4.62728e-06 -6.88466e-06 -7.70511e-06 -1.13687e-13 -8.3 1.9 -3.12557 14.6194 0.504241 0 -4.5 2.84217e-14 -28.5927 -0.0281514 0.0984918 0 -3.4 -8.52651e-14 -21.1964 -0.0385654 0.0488678 -0.25 -2.2 0.4 4.62728e-06 -6.88466e-06 -7.70511e-06 0 -8.3 1 -2.81333 13.6319 0.492245 -2.27374e-13 -4.65 -2.84217e-14 -27.591 -0.0785959 0.225061 -2.27374e-13 -3.3 2.84217e-14 -89.9589 -0.00145305 0.000737208 -0.5 -2.15 -0.8 4.62728e-06 -6.88466e-06 -7.70511e-06 -1.13687e-13 -7.75 -0.2 -2.45377 12.8976 0.542991 1.13687e-13 -3.8 0 -44.5377 -0.113757 0.153724 -2.27374e-13 -3.4 5.68434e-14 -89.9959 0.0342374 -3.55662 -0.75 -1.75 -1.85 4.62728e-06 -6.88466e-06 -7.70511e-06 0 -7.15 -1 -2.37357 12.9873 0.604787 1.13687e-13 -3 5.68434e-14 -0.0717369 0.116909 -0.000931533 0 -2.35 -5.68434e-14 0.00218176 -0.00180961 -0.000935088 -5 17 -2.27374e-13 -1.02809 2.71951 4.58803 -6.45 -2.27374e-13 -2.27374e-13 -0.7199 -0.745717 -2.30215 -6.45 -5.68434e-14 -2.27374e-13 -32.1569 -27.9131 -21.807 -1.13687e-13 -32.4 -2 -0.879412 -34.3719 14.9067 0 -25.65 2 -1.03749 -24.6217 36.7142 0.5 -1.5 2.65 4.88084 15.3311 -101.235 2.27374e-13 -3.8 3.7 0.0787583 45.8961 0.00717485 1.13687e-13 -3 2.7 0.00577339 54.1762 -0.0150609 0 -1.9 1.6 -1.73628e-06 -2.66185e-06 -2.79794e-06 0 -8.3 1.9 19.1318 21.5335 -4.037 1.13687e-13 -4.5 -2.27374e-13 4.86388 20.862 11.2168 0 -3.4 -2.27374e-13 42.9199 0.0217169 -0.0314839 0.25 -2.2 0.4 -1.73628e-06 -2.66185e-06 -2.79794e-06 0 -8.3 1 31.0796 11.8745 -4.44435 -1.13687e-13 -4.65 -1.13687e-13 1.07167 14.42 10.7897 0 -3.3 0 57.2803 0.0449751 0.0909825 0.5 -2.15 -0.8 -1.73628e-06 -2.66185e-06 -2.79794e-06 1.42109e-14 -7.75 -0.2 50.7123 4.4992 -5.14783 1.13687e-13 -3.8 0 1.38937 21.4896 18.0519 -1.13687e-13 -3.4 -1.13687e-13 68.0192 0.138847 0.0441849 0.75 -1.75 -1.85 -1.73628e-06 -2.66185e-06 -2.79794e-06 2.84217e-14 -7.15 -1 63.5744 -3.35565 -3.13409 1.13687e-13 -3 0 4.06066 17.91 9.21253 1.13687e-13 -2.35 1.13687e-13 40.214 0.059013 0.111228 8 0 2.27374e-13 3.80998 -21.4585 0.948319 1.13687e-13 -45 -1 7.43262 5.17439 -1.12768 -1.13687e-13 -41 -2 -5.42029 12.2491 24.2617 4.26326e-14 -7.5 12.5 3.43943e-07 -4.07422e-07 -1.59165e-08 -1.13687e-13 7.10543e-15 4 -4.04976 -13.3368 9.84933 -8 -2.84217e-14 2.27374e-13 -4.64169 10.8284 -26.5259 -1.13687e-13 -45 -1 21.4043 -8.18206 0.460653 -1.13687e-13 -41 -2 -7.5557 1.86386 22.9277 0 -7.5 12.5 -3.65051e-06 -0.0379941 -0.00871375 0 5.55112e-17 4 2.43656 9.88229 11.4331 
-206.73 90.5408 1184.68 3.53531 -3.44813 148.342 -1.13687e-13 8 0 17.4947 17.1407 1.44931 1.7053e-13 8 2.27374e-13 2.85412 5.85241 0.223454 0 8 -2.27374e-13 1.42922 2.92718 0.1478 1.13687e-13 8 0 1.42712 2.92239 0.148602 -5.68434e-14 17 2.27374e-13 -1.07738 1.03549 -0.171194 1.7053e-13 10.8 -2.27374e-13 -2.52122 2.40948 -0.368919 5 17 2.27374e-13 -9.63935 0.131071 0.758365 6.45 -5.68434e-14 0 -0.209336 1.21641 2.67929 6.45 -5.68434e-14 -2.27374e-13 22.7548 0.116328 20.33 -2.84217e-14 -32.4 -2 -1.28168 -52.7953 -27.0456 1.13687e-13 -25.65 2 -12.95 -39.779 -30.6633 -0.5 -1.5 2.65 -6.32608 34.9883 67.0084 1.42109e-13 -3.8 3.7 -0.344678 34.0101 -0.0573022 -1.13687e-13 -3 2.7 0.0458338 4.67445 0.186517 -1.13687e-13 -1.9 1.6 4.62728e-06 -6.88466e-06 -7.70511e-06 0 -8.3 1.9 -2.89904 14.0763 0.448454 1.13687e-13 -4.5 2.84217e-14 -27.1493 -0.0213117 0.0582783 2.27374e-13 -3.4 -8.52651e-14 -20.327 -0.0243324 0.0281249 -0.25 -2.2 0.4 4.62728e-06 -6.88466e-06 -7.70511e-06 1.13687e-13 -8.3 1 -2.61557 13.1909 0.442182 -3.41061e-13 -4.65 0 -24.4434 -0.0673132 0.210033 -1.13687e-13 -3.3 2.84217e-14 -90.4326 0.0187983 -0.00983107 -0.5 -2.15 -0.8 4.62728e-06 -6.88466e-06 -7.70511e-06 -1.13687e-13 -7.75 -0.2 -2.27432 12.4994 0.490017 0 -3.8 0 -42.7705 -0.0908291 0.121132 0 -3.4 2.84217e-14 -89.9959 0.0342374 -3.55639 -0.75 -1.75 -1.85 4.62728e-06 -6.88466e-06 -7.70511e-06 -1.13687e-13 -7.15 -1 -2.18171 12.542 0.540557 0 -3 -2.84217e-14 -0.0748729 0.116906 -0.000931533 1.13687e-13 -2.35 -5.68434e-14 -0.0014458 -0.00180961 -0.000935088 -5 17 0 -1.21642 2.76135 4.75213 -6.45 -5.68434e-14 0 -0.728183 -0.745584 -2.31269 -6.45 -5.68434e-14 2.27374e-13 -31.8887 -27.8315 -21.778 -1.13687e-13 -32.4 -2 -0.649421 -34.4531 14.6375 0 -25.65 2 -1.11004 -24.0491 35.8082 0.5 -1.5 2.65 4.41469 14.8127 -99.7568 3.41061e-13 -3.8 3.7 0.0787682 45.8407 0.00716771 1.13687e-13 -3 2.7 0.00577308 54.1755 -0.0150607 0 -1.9 1.6 -1.73628e-06 -2.66185e-06 -2.79794e-06 -1.42109e-14 -8.3 1.9 20.1813 22.1807 -4.36154 1.13687e-13 -4.5 -4.54747e-13 4.9057 20.7471 11.0359 0 -3.4 -4.54747e-13 42.5327 0.00893477 -0.0152037 0.25 -2.2 0.4 -1.73628e-06 -2.66185e-06 -2.79794e-06 0 -8.3 1 32.1542 12.1986 -4.71228 -1.13687e-13 -4.65 -1.13687e-13 1.0211 14.4935 11.0109 0 -3.3 0 58.3189 0.0472788 0.0714537 0.5 -2.15 -0.8 -1.73628e-06 -2.66185e-06 -2.79794e-06 0 -7.75 -0.2 52.0585 4.47232 -5.35904 2.27374e-13 -3.8 0 1.2681 21.571 18.3942 0 -3.4 -2.27374e-13 69.3896 0.108968 0.0257966 0.75 -1.75 -1.85 -1.73628e-06 -2.66185e-06 -2.79794e-06 0 -7.15 -1 64.7137 -3.27088 -3.33454 0 -3 1.13687e-13 3.98721 18.3129 9.70281 -1.13687e-13 -2.35 0 41.3789 0.0523436 0.0795507 8 -1.42109e-14 -2.27374e-13 3.91827 -21.3412 0.971772 0 -45 -1 7.33089 5.11782 -1.13678 1.13687e-13 -41 -2 -5.46741 12.6423 24.5533 0 -7.5 12.5 3.43943e-07 -4.07422e-07 -1.59165e-08 -1.27898e-13 -7.10543e-15 4 -4.24214 -13.7664 9.86893 -8 1.42109e-14 2.27374e-13 -4.36945 10.5705 -26.5454 1.13687e-13 -45 -1 20.6818 -7.86938 0.518679 0 -41 -2 -7.13598 1.72488 22.889 0 -7.5 12.5 -3.65051e-06 -0.0379941 -0.00871375 -2.27374e-13 1.66533e-16 4 2.4151 9.7461 11.4299 
